<svg xmlns="http://www.w3.org/2000/svg" viewBox="0 0 128 128" width="128" height="128">
  <!-- Background -->
  <rect width="128" height="128" rx="22" fill="#1b2b34"/>

  <!-- Left panel: hardcoded color chip -->
  <rect x="12" y="38" width="42" height="52" rx="9" fill="#243340"/>
  <!-- Color fill swatch -->
  <rect x="20" y="46" width="26" height="26" rx="5" fill="#6699cc"/>
  <!-- Bottom "code lines" representing hardcoded value -->
  <rect x="20" y="78" width="26" height="3.5" rx="1.75" fill="#4f5b66"/>
  <rect x="20" y="85" width="18" height="3.5" rx="1.75" fill="#4f5b66"/>

  <!-- Arrow connector -->
  <path d="M57 64 H72" stroke="#65737e" stroke-width="3" stroke-linecap="round"/>
  <path d="M68 59 L73 64 L68 69" fill="none" stroke="#65737e" stroke-width="3" stroke-linecap="round" stroke-linejoin="round"/>

  <!-- Right panel: variable token -->
  <rect x="74" y="38" width="42" height="52" rx="9" fill="#243340"/>
  <!-- Variable diamond indicator -->
  <polygon points="95,47 108,60 95,73 82,60" fill="#5fb3b3" opacity="0.85"/>
  <!-- Diamond inner highlight -->
  <polygon points="95,52 103,60 95,68 87,60" fill="#1b2b34" opacity="0.4"/>
  <!-- Bottom "var name" lines -->
  <rect x="82" y="78" width="26" height="3.5" rx="1.75" fill="#5fb3b3" opacity="0.45"/>
  <rect x="82" y="85" width="18" height="3.5" rx="1.75" fill="#5fb3b3" opacity="0.28"/>
</svg>
